<svg xmlns="http://www.w3.org/2000/svg" viewBox="0 0 600 400" fill="none">
  <rect width="600" height="400" fill="#1a1a2e"/>
  <rect x="0" y="0" width="600" height="400" fill="url(#grad1)" opacity="0.8"/>
  <defs>
    <linearGradient id="grad1" x1="0%" y1="0%" x2="100%" y2="100%">
      <stop offset="0%" style="stop-color:#8b0000;stop-opacity:1" />
      <stop offset="100%" style="stop-color:#006400;stop-opacity:1" />
    </linearGradient>
  </defs>
  <!-- Long buffet table -->
  <rect x="80" y="190" width="440" height="30" rx="5" fill="#fff" opacity="0.1"/>
  <rect x="80" y="215" width="440" height="60" rx="3" fill="#fff" opacity="0.05"/>
  <!-- Chafing dishes -->
  <rect x="120" y="160" width="70" height="35" rx="5" fill="#c0c0c0" opacity="0.15"/>
  <ellipse cx="155" cy="158" rx="38" ry="10" fill="#c0c0c0" opacity="0.12"/>
  <rect x="260" y="160" width="70" height="35" rx="5" fill="#c0c0c0" opacity="0.15"/>
  <ellipse cx="295" cy="158" rx="38" ry="10" fill="#c0c0c0" opacity="0.12"/>
  <rect x="400" y="160" width="70" height="35" rx="5" fill="#c0c0c0" opacity="0.15"/>
  <ellipse cx="435" cy="158" rx="38" ry="10" fill="#c0c0c0" opacity="0.12"/>
  <!-- Food colors in dishes -->
  <ellipse cx="155" cy="170" rx="25" ry="8" fill="#8b4513" opacity="0.2"/>
  <ellipse cx="295" cy="170" rx="25" ry="8" fill="#cd853f" opacity="0.2"/>
  <ellipse cx="435" cy="170" rx="25" ry="8" fill="#228b22" opacity="0.2"/>
  <!-- Steam -->
  <path d="M150 148 Q153 138 156 148" stroke="#fff" stroke-width="1.5" opacity="0.2" fill="none"/>
  <path d="M290 148 Q293 138 296 148" stroke="#fff" stroke-width="1.5" opacity="0.2" fill="none"/>
  <path d="M430 148 Q433 138 436 148" stroke="#fff" stroke-width="1.5" opacity="0.2" fill="none"/>
  <!-- Holly decoration -->
  <circle cx="300" cy="100" r="6" fill="#006400" opacity="0.35"/>
  <circle cx="290" cy="95" r="5" fill="#228b22" opacity="0.3"/>
  <circle cx="310" cy="95" r="5" fill="#228b22" opacity="0.3"/>
  <circle cx="298" cy="88" r="3" fill="#ff0000" opacity="0.4"/>
  <circle cx="306" cy="89" r="3" fill="#ff0000" opacity="0.4"/>
  <!-- Candles -->
  <rect x="200" y="110" width="6" height="25" fill="#fff" opacity="0.2"/>
  <circle cx="203" cy="108" r="4" fill="#FFD700" opacity="0.4"/>
  <rect x="394" y="110" width="6" height="25" fill="#fff" opacity="0.2"/>
  <circle cx="397" cy="108" r="4" fill="#FFD700" opacity="0.4"/>
  <!-- Star ornament -->
  <polygon points="300,55 303,65 313,65 305,71 308,81 300,75 292,81 295,71 287,65 297,65" fill="#FFD700" opacity="0.4"/>
  <!-- Text -->
  <text x="300" y="340" text-anchor="middle" fill="#fff" font-family="Georgia, serif" font-size="22" font-weight="bold" opacity="0.9">Holiday Catering</text>
  <text x="300" y="365" text-anchor="middle" fill="#fff" font-family="Arial, sans-serif" font-size="13" opacity="0.6">Festive Packages • Delivery Available</text>
</svg>